<svg width="1002" height="1020" viewBox="0 0 1002 1020" fill="none" xmlns="http://www.w3.org/2000/svg">
	<path fill-rule="evenodd" clip-rule="evenodd"
		d="M939.469 803.421H66.335L46.4345 966.893L25.7048 803.421H0L26.534 1020H65.5058L89.5522 827.485H939.469V803.421Z"
		fill="currentColor" />
	<path
		d="M137.632 743V604.4H200.992C218.548 604.4 232.012 609.086 241.384 618.458C249.304 626.378 253.264 637.07 253.264 650.534C253.264 671.786 243.364 686.108 223.564 693.5L257.422 743H221.782L191.686 698.648H168.124V743H137.632ZM168.124 671.72H199.012C206.404 671.72 212.146 669.938 216.238 666.374C220.33 662.678 222.376 657.794 222.376 651.722C222.376 645.254 220.264 640.37 216.04 637.07C211.816 633.638 205.942 631.922 198.418 631.922H168.124V671.72Z"
		fill="currentColor" />
	<path d="M281.708 743V604.4H386.252V631.526H312.002V659.642H377.342V686.768H312.002V715.874H387.242V743H281.708Z"
		fill="currentColor" />
	<path
		d="M403.462 743L462.862 603.41H490.979L550.378 743H518.5L505.828 711.914H447.22L434.548 743H403.462ZM458.11 684.986H494.938L476.524 640.04L458.11 684.986Z"
		fill="currentColor" />
	<path
		d="M628.81 745.376C608.482 745.376 591.52 738.512 577.924 724.784C564.46 710.924 557.728 693.896 557.728 673.7C557.728 653.636 564.526 636.674 578.122 622.814C591.718 608.954 609.01 602.024 629.998 602.024C642.01 602.024 652.108 604.004 660.292 607.964C668.476 611.792 676.264 617.336 683.656 624.596L665.44 645.584C659.5 640.172 653.89 636.278 648.61 633.902C643.462 631.394 637.192 630.14 629.8 630.14C618.184 630.14 608.548 634.364 600.892 642.812C593.368 651.128 589.606 661.424 589.606 673.7C589.606 685.844 593.368 696.14 600.892 704.588C608.548 713.036 618.184 717.26 629.8 717.26C637.192 717.26 643.594 715.94 649.006 713.3C654.418 710.66 660.16 706.568 666.232 701.024L685.636 721.814C678.112 729.866 669.928 735.806 661.084 739.634C652.372 743.462 641.614 745.376 628.81 745.376Z"
		fill="currentColor" />
	<path d="M743.309 743V632.516H701.135V604.4H815.975V632.516H773.801V743H743.309Z" fill="currentColor" />
	<path
		d="M900.7 633.3C890.433 633.3 882.467 630.633 876.8 625.3C871.133 619.967 868.3 611.967 868.3 601.3V562H888V600.9C888 605.833 889.133 609.567 891.4 612.1C893.733 614.567 896.9 615.8 900.9 615.8C904.9 615.8 908.033 614.6 910.3 612.2C912.633 609.8 913.8 606.2 913.8 601.4V562H933.5V600.8C933.5 611.733 930.6 619.9 924.8 625.3C919.067 630.633 911.033 633.3 900.7 633.3Z"
		fill="currentColor" />
	<path
		d="M972.981 633.2C959.781 633.2 948.848 629.333 940.181 621.6L950.981 608.7C957.981 614.3 965.548 617.1 973.681 617.1C979.015 617.1 981.681 615.433 981.681 612.1C981.681 610.633 980.881 609.433 979.281 608.5C977.681 607.5 974.548 606.467 969.881 605.4C965.615 604.4 962.081 603.433 959.281 602.5C956.548 601.5 953.848 600.2 951.181 598.6C948.581 596.933 946.648 594.833 945.381 592.3C944.115 589.767 943.481 586.733 943.481 583.2C943.481 576.6 945.915 571.233 950.781 567.1C955.715 562.9 962.315 560.8 970.581 560.8C982.048 560.8 991.648 563.9 999.381 570.1L989.681 583.8C983.148 579.2 976.615 576.9 970.081 576.9C967.815 576.9 966.081 577.333 964.881 578.2C963.681 579.067 963.081 580.2 963.081 581.6C963.081 583.2 963.881 584.467 965.481 585.4C967.148 586.333 970.381 587.333 975.181 588.4C983.981 590.333 990.515 592.933 994.781 596.2C999.115 599.4 1001.28 604.133 1001.28 610.4C1001.28 617.467 998.715 623.033 993.581 627.1C988.448 631.167 981.581 633.2 972.981 633.2Z"
		fill="currentColor" />
	<path
		d="M196.806 1016.98C174.102 1016.98 154.5 1009.59 138 994.804L156.018 973.222C169.614 984.442 183.408 990.052 197.4 990.052C203.604 990.052 208.488 988.864 212.052 986.488C215.616 984.112 217.398 980.812 217.398 976.588C217.398 972.628 215.55 969.46 211.854 967.084C208.158 964.576 200.7 961.87 189.48 958.966C181.56 956.986 175.158 955.072 170.274 953.224C165.39 951.244 160.704 948.67 156.216 945.502C151.86 942.334 148.626 938.374 146.514 933.622C144.534 928.738 143.544 922.93 143.544 916.198C143.544 903.658 148.032 893.56 157.008 885.904C166.116 878.248 177.798 874.42 192.054 874.42C211.722 874.42 228.882 880.294 243.534 892.042L227.694 915.01C214.626 905.902 202.614 901.348 191.658 901.348C185.982 901.348 181.56 902.536 178.392 904.912C175.356 907.156 173.838 910.126 173.838 913.822C173.838 918.31 175.752 921.676 179.58 923.92C183.408 926.164 191.46 928.87 203.736 932.038C218.784 935.998 229.872 941.08 237 947.284C244.128 953.488 247.692 962.398 247.692 974.014C247.692 987.478 243.006 998.038 233.634 1005.69C224.394 1013.22 212.118 1016.98 196.806 1016.98Z"
		fill="currentColor" />
	<path
		d="M331.97 1017.18C313.094 1017.18 298.376 1011.96 287.816 1001.54C277.256 990.976 271.976 975.664 271.976 955.6V876.4H302.468V954.808C302.468 965.896 305.042 974.41 310.19 980.35C315.47 986.158 322.862 989.062 332.366 989.062C341.87 989.062 349.196 986.224 354.344 980.548C359.624 974.872 362.264 966.622 362.264 955.798V876.4H392.756V954.61C392.756 975.202 387.344 990.778 376.52 1001.34C365.828 1011.9 350.978 1017.18 331.97 1017.18Z"
		fill="currentColor" />
	<path
		d="M423.815 1015V876.4H456.683L493.115 935.008L529.547 876.4H562.415V1015H532.121V924.514L493.115 983.716H492.323L453.713 925.108V1015H423.815Z"
		fill="currentColor" />
	<path
		d="M595.711 1015V876.4H628.579L665.011 935.008L701.443 876.4H734.311V1015H704.017V924.514L665.011 983.716H664.219L625.609 925.108V1015H595.711Z"
		fill="currentColor" />
	<path d="M768.994 1015V876.4H799.486V1015H768.994Z" fill="currentColor" />
	<path d="M866.397 1015V904.516H824.223V876.4H939.063V904.516H896.889V1015H866.397Z" fill="currentColor" />
	<path fill-rule="evenodd" clip-rule="evenodd"
		d="M401.627 28.0119C386.727 24.2841 378.007 25.635 371.939 29.1774C365.51 32.9306 359.707 39.6876 356.179 53.8071L356.109 54.0878L356.026 54.3649C351.736 68.6764 350.772 88.324 353.954 112.208L353.969 112.321L353.982 112.434C359.538 160.885 381.167 221.516 416.332 284.533C451.285 347.169 494.161 396.39 532.404 425.909C551.786 440.449 569.26 450.065 583.448 453.615L583.522 453.634L583.597 453.653C597.518 457.32 607.053 456.001 613.136 452.45C619.565 448.696 625.368 441.939 628.896 427.82L628.966 427.539L629.049 427.262C633.339 412.951 634.303 393.303 631.121 369.419L631.106 369.306L631.093 369.193C625.525 320.636 604.671 259.201 568.838 197.262C533.001 135.314 490.897 86.0404 452.606 55.6695C433.25 41.1571 415.799 31.5577 401.627 28.0119ZM359.405 7.67439C373.237 -0.400443 389.393 -0.70915 407.66 3.86106C426.624 8.60543 447.269 20.5458 467.662 35.8518L467.792 35.9494L467.919 36.0504C509.197 68.7529 553.275 120.675 590.366 184.789C627.475 248.933 649.733 313.581 655.793 366.24C659.211 391.973 658.534 415.332 652.958 434.138C648.174 453.059 639.075 466.127 625.67 473.953C611.872 482.007 594.902 482.359 577.341 477.748C558.398 472.991 537.78 461.062 517.413 445.775L517.347 445.726L517.282 445.676C475.94 413.784 430.951 361.789 394.614 296.671C358.495 231.944 335.355 168.149 329.282 115.386C325.864 89.6532 326.541 66.2952 332.117 47.4895C336.901 28.568 345.999 15.5 359.405 7.67439Z"
		fill="currentColor" />
	<path fill-rule="evenodd" clip-rule="evenodd"
		d="M492.537 152.854C420.795 152.854 357.042 165.119 312.528 184.21L312.456 184.241L312.384 184.271C289.54 193.731 273.435 204.584 262.218 215.061C251.757 224.832 248.756 233.326 248.756 240.814C248.756 247.586 251.856 256.887 262.218 266.566C273.346 276.96 290.264 287.868 312.528 297.417C357.042 316.508 420.795 328.773 492.537 328.773C564.236 328.773 627.204 316.522 672.62 297.386L672.69 297.356L672.69 297.356C695.535 287.896 711.64 277.043 722.857 266.566C733.317 256.795 736.318 248.301 736.318 240.814C736.318 234.041 733.219 224.74 722.857 215.061C711.729 204.667 694.811 193.759 672.547 184.21C628.033 165.119 564.28 152.854 492.537 152.854ZM302.801 161.298C351.15 140.577 418.38 127.96 492.537 127.96C566.732 127.96 633.991 140.59 682.346 161.329C706.516 171.695 726.082 184.022 739.83 196.862C754.343 210.418 761.194 226.011 761.194 240.814C761.194 256.56 754.245 271.301 739.83 284.765C726.178 297.516 707.468 309.891 682.239 320.344C633.13 341.029 566.759 353.667 492.537 353.667C418.343 353.667 351.084 341.037 302.729 320.298C278.559 309.932 258.992 297.605 245.245 284.765C230.731 271.209 223.881 255.616 223.881 240.814C223.881 225.067 230.83 210.326 245.245 196.862C258.89 184.117 277.589 171.747 302.801 161.298Z"
		fill="currentColor" />
	<path fill-rule="evenodd" clip-rule="evenodd"
		d="M583.729 27.9421C568.976 32.4181 551.353 41.5145 532.468 55.6696C494.178 86.0405 452.074 135.314 416.237 197.262C380.426 259.163 359.576 320.561 353.992 369.103C351.597 393.145 352.509 413.127 356.179 427.82C359.707 441.939 365.51 448.696 371.939 452.45C378.007 455.992 386.727 457.343 401.627 453.615C416 450.019 433.497 441.097 452.479 426.059C490.792 395.705 532.936 346.41 568.807 284.42C603.783 222.541 624.68 161.099 631.092 112.425C633.475 88.4274 632.561 68.4797 628.895 53.8071C625.517 40.2813 619.154 33.0901 612.933 29.0604C606.912 25.6277 598.294 24.3418 583.729 27.9421ZM577.415 3.86106C595.682 -0.70915 611.838 -0.400442 625.67 7.67439L625.878 7.79562L626.081 7.92479C638.036 15.5383 648.153 28.2537 653.028 47.7694C657.645 66.2504 658.394 89.3861 655.826 115.092L655.807 115.282L655.782 115.472C648.899 167.99 626.697 232.578 590.427 296.731L590.397 296.785L590.366 296.838C553.275 360.953 509.197 412.874 467.919 445.577C447.1 462.071 426.455 473.064 407.66 477.766C389.393 482.336 373.237 482.027 359.405 473.953C345.933 466.089 336.811 452.93 332.046 433.858C327.43 415.377 326.681 392.241 329.249 366.535L329.258 366.445L329.269 366.355C335.309 313.675 357.573 248.98 394.709 184.789C431.8 120.675 475.878 68.7529 517.156 36.0504L517.283 35.9494L517.413 35.8518C538.162 20.2784 558.532 9.51598 576.857 4.01436L577.134 3.93123L577.415 3.86106Z"
		fill="currentColor" />
	<path
		d="M492.401 189.591L504.599 226.771H544.073L512.138 249.749L524.336 286.928L492.401 263.95L460.466 286.928L472.664 249.749L440.729 226.771H480.203L492.401 189.591Z"
		fill="currentColor" />
</svg>